<svg width="50px" height="60px" fill="none" xmlns="http://www.w3.org/2000/svg" transform="rotate(0) scale(1, 1)"><g filter="url(#filter0_d)"><circle cx="24.75" cy="45.75" r="8.25" fill="#484848"/><circle cx="24.75" cy="45.75" r="8.25" stroke="#ffffff" stroke-width="2"/></g><g filter="url(#filter1_f)"><ellipse cx="24.735" cy="44.554" rx="3.938" ry="1.288" fill="#000000" fill-opacity=".3"/></g><g opacity=".262" filter="url(#filter2_f)"><path fill-rule="evenodd" clip-rule="evenodd" d="M30.868 40.273c6.824-1.294 11.695-4.692 11.695-8.68 0-5.103-7.975-9.24-17.813-9.24S6.937 26.49 6.937 31.593c0 3.98 4.85 7.37 11.65 8.672l5.077 4.459c.48.422 1.456.428 1.948.01l5.256-4.46z" fill="url(#paint0_linear)"/></g><path fill-rule="evenodd" clip-rule="evenodd" d="M31.504 36.12C38.522 33.53 43.5 27.025 43.5 19.408 43.5 9.518 35.105 1.5 24.75 1.5S6 9.518 6 19.408c0 7.624 4.988 14.135 12.016 16.719l6.49 8.226a.312.312 0 00.489 0l6.509-8.233z" fill="url(#paint1_linear)"/><ellipse cx="24.75" cy="19.866" rx="7.5" ry="7.347" fill="#0060cf"/><defs><filter id="filter0_d" x="11.5" y="32.5" width="26.5" height="26.5" filterUnits="userSpaceOnUse" color-interpolation-filters="sRGB"><feFlood flood-opacity="0" result="BackgroundImageFix"/><feColorMatrix in="SourceAlpha" values="0 0 0 0 0 0 0 0 0 0 0 0 0 0 0 0 0 0 127 0"/><feMorphology radius="1" operator="dilate" in="SourceAlpha" result="effect1_dropShadow"/><feOffset/><feGaussianBlur stdDeviation="1.5"/><feColorMatrix values="0 0 0 0 0 0 0 0 0 0 0 0 0 0 0 0 0 0 0.4 0"/><feBlend in2="BackgroundImageFix" result="effect1_dropShadow"/><feBlend in="SourceGraphic" in2="effect1_dropShadow" result="shape"/></filter><filter id="filter1_f" x="18.967" y="41.436" width="11.535" height="6.236" filterUnits="userSpaceOnUse" color-interpolation-filters="sRGB"><feFlood flood-opacity="0" result="BackgroundImageFix"/><feBlend in="SourceGraphic" in2="BackgroundImageFix" result="shape"/><feGaussianBlur stdDeviation=".915" result="effect1_foregroundBlur"/></filter><filter id="filter2_f" x="2.867" y="18.283" width="43.767" height="30.832" filterUnits="userSpaceOnUse" color-interpolation-filters="sRGB"><feFlood flood-opacity="0" result="BackgroundImageFix"/><feBlend in="SourceGraphic" in2="BackgroundImageFix" result="shape"/><feGaussianBlur stdDeviation="2.035" result="effect1_foregroundBlur"/></filter><linearGradient id="paint0_linear" x1="37.902" y1="44.035" x2="37.902" y2="27.282" gradientUnits="userSpaceOnUse"><stop/><stop offset=".992" stop-opacity=".01"/></linearGradient><linearGradient id="paint1_linear" x1="37.542" y1="41.785" x2="37.542" y2="12.469" gradientUnits="userSpaceOnUse"><stop stop-color="#2cd5de" data-originalstopcolor="#2cd5de"/><stop offset="1" stop-color="#4d88ff" data-originalstopcolor="#4d88ff"/></linearGradient></defs></svg>